<?xml version="1.0" encoding="UTF-8" standalone="no"?>
<svg
   xmlns:dc="http://purl.org/dc/elements/1.1/"
   xmlns:cc="http://creativecommons.org/ns#"
   xmlns:rdf="http://www.w3.org/1999/02/22-rdf-syntax-ns#"
   xmlns:svg="http://www.w3.org/2000/svg"
   xmlns="http://www.w3.org/2000/svg"
   xmlns:sodipodi="http://sodipodi.sourceforge.net/DTD/sodipodi-0.dtd"
   xmlns:inkscape="http://www.inkscape.org/namespaces/inkscape"
   viewBox="105 -473 36 36"
   version="1.1"
   id="svg15"
   sodipodi:docname="To-do List.svg"
   inkscape:version="0.92.2 (unknown)">
  <metadata
     id="metadata19">
    <rdf:RDF>
      <cc:Work
         rdf:about="">
        <dc:format>image/svg+xml</dc:format>
        <dc:type
           rdf:resource="http://purl.org/dc/dcmitype/StillImage" />
      </cc:Work>
    </rdf:RDF>
  </metadata>
  <sodipodi:namedview
     pagecolor="#ffffff"
     bordercolor="#666666"
     borderopacity="1"
     objecttolerance="10"
     gridtolerance="10"
     guidetolerance="10"
     inkscape:pageopacity="0"
     inkscape:pageshadow="2"
     inkscape:window-width="1855"
     inkscape:window-height="1056"
     id="namedview17"
     showgrid="false"
     inkscape:zoom="6.5555556"
     inkscape:cx="17.694915"
     inkscape:cy="18"
     inkscape:window-x="65"
     inkscape:window-y="24"
     inkscape:window-maximized="1"
     inkscape:current-layer="svg15" />
  <defs
     id="defs4">
    <style
       id="style2">
      .cls-1 {
        fill: #d93021;
      }

      .cls-2, .cls-4 {
        fill: none;
      }

      .cls-2 {
        stroke: #d93021;
        stroke-width: 3px;
      }

      .cls-3 {
        stroke: none;
      }
    </style>
  </defs>
  <g
     transform="rotate(45,625.8948,-85.189881)"
     id="bell"
     style="fill:#000000">
    <path
       style="fill:#000000"
       inkscape:connector-curvature="0"
       transform="translate(6.649,17.074)"
       d="M 0,0 A 2.194,2.194 0 0 0 2.052,1.427 2.2,2.2 0 0 0 4.1,0 C 3.455,0.05 2.771,0.082 2.052,0.082 1.333,0.082 0.65,0.05 0,0 Z"
       class="cls-1"
       data-name="Path 823"
       id="Path_823" />
    <path
       style="fill:#000000"
       inkscape:connector-curvature="0"
       d="M 16.626,13.2 H 16.335 L 14.394,10.871 13.359,5.434 h -0.01 A 4.712,4.712 0 0 0 9.711,1.614 c 0,-0.008 0.01,-0.015 0.012,-0.022 L 10.008,0.736 A 0.526,0.526 0 0 0 9.477,0 H 7.924 A 0.527,0.527 0 0 0 7.393,0.736 L 7.678,1.592 A 0.2,0.2 0 0 0 7.69,1.614 4.714,4.714 0 0 0 4.052,5.434 H 4.044 L 3.008,10.868 1.067,13.2 H 0.776 A 0.779,0.779 0 0 0 0,13.973 1.218,1.218 0 0 0 0.725,15.027 24.39,24.39 0 0 0 8.7,16.3 24.39,24.39 0 0 0 16.676,15.025 1.218,1.218 0 0 0 17.401,13.971 0.779,0.779 0 0 0 16.626,13.2 Z"
       class="cls-1"
       data-name="Path 824"
       id="Path_824" />
  </g>
  <circle
     class="cls-3"
     cx="123"
     cy="-455"
     r="18"
     id="circle9"
     style="fill:none;stroke:none;stroke-width:3px" />
  <path
     inkscape:connector-curvature="0"
     id="circle11"
     d="m 123,-473 c -9.92336,0 -18,8.07664 -18,18 0,9.92336 8.07664,18 18,18 9.92336,0 18,-8.07664 18,-18 0,-9.92336 -8.07664,-18 -18,-18 z m 0,3 c 8.30204,0 15,6.69796 15,15 0,8.30204 -6.69796,15 -15,15 -8.30204,0 -15,-6.69796 -15,-15 0,-8.30204 6.69796,-15 15,-15 z"
     style="color:#000000;font-style:normal;font-variant:normal;font-weight:normal;font-stretch:normal;font-size:medium;line-height:normal;font-family:sans-serif;font-variant-ligatures:normal;font-variant-position:normal;font-variant-caps:normal;font-variant-numeric:normal;font-variant-alternates:normal;font-feature-settings:normal;text-indent:0;text-align:start;text-decoration:none;text-decoration-line:none;text-decoration-style:solid;text-decoration-color:#000000;letter-spacing:normal;word-spacing:normal;text-transform:none;writing-mode:lr-tb;direction:ltr;text-orientation:mixed;dominant-baseline:auto;baseline-shift:baseline;text-anchor:start;white-space:normal;shape-padding:0;clip-rule:nonzero;display:inline;overflow:visible;visibility:visible;opacity:1;isolation:auto;mix-blend-mode:normal;color-interpolation:sRGB;color-interpolation-filters:linearRGB;solid-color:#000000;solid-opacity:1;vector-effect:none;fill:#000000;fill-opacity:1;fill-rule:nonzero;stroke:none;stroke-width:3px;stroke-linecap:butt;stroke-linejoin:miter;stroke-miterlimit:4;stroke-dasharray:none;stroke-dashoffset:0;stroke-opacity:1;color-rendering:auto;image-rendering:auto;shape-rendering:auto;text-rendering:auto;enable-background:accumulate" />
</svg>
