<?xml version="1.0" encoding="UTF-8" standalone="no"?>
<svg
   xmlns:dc="http://purl.org/dc/elements/1.1/"
   xmlns:cc="http://creativecommons.org/ns#"
   xmlns:rdf="http://www.w3.org/1999/02/22-rdf-syntax-ns#"
   xmlns:svg="http://www.w3.org/2000/svg"
   xmlns="http://www.w3.org/2000/svg"
   xmlns:sodipodi="http://sodipodi.sourceforge.net/DTD/sodipodi-0.dtd"
   xmlns:inkscape="http://www.inkscape.org/namespaces/inkscape"
   viewBox="190 -423 22 22"
   version="1.1"
   id="svg1541"
   sodipodi:docname="Copy Icon.svg"
   inkscape:version="0.92.2 (unknown)">
  <metadata
     id="metadata1545">
    <rdf:RDF>
      <cc:Work
         rdf:about="">
        <dc:format>image/svg+xml</dc:format>
        <dc:type
           rdf:resource="http://purl.org/dc/dcmitype/StillImage" />
      </cc:Work>
    </rdf:RDF>
  </metadata>
  <sodipodi:namedview
     pagecolor="#ffffff"
     bordercolor="#666666"
     borderopacity="1"
     objecttolerance="10"
     gridtolerance="10"
     guidetolerance="10"
     inkscape:pageopacity="0"
     inkscape:pageshadow="2"
     inkscape:window-width="756"
     inkscape:window-height="480"
     id="namedview1543"
     showgrid="false"
     inkscape:zoom="10.727273"
     inkscape:cx="11"
     inkscape:cy="11"
     inkscape:window-x="65"
     inkscape:window-y="24"
     inkscape:window-maximized="0"
     inkscape:current-layer="svg1541" />
  <defs
     id="defs1529">
    <style
       id="style1527">
      .cls-1 {
        fill: #55595c;
      }

      .cls-2, .cls-4 {
        fill: none;
      }

      .cls-2 {
        stroke: #55595c;
        stroke-width: 2px;
      }

      .cls-3 {
        stroke: none;
      }
    </style>
  </defs>
  <g
     id="Group_281"
     data-name="Group 281"
     transform="translate(198.638,-416.863)"
     style="stroke:none;fill:#000000">
    <path
       id="Path_853"
       data-name="Path 853"
       class="cls-1"
       d="m 397.686,1489 h -6.466 a 0.218,0.218 0 0 0 -0.22,0.2 v 1.013 h 5.673 v 0.608 l 0.013,6.281 h 1 a 0.2,0.2 0 0 0 0.2,-0.2 v -7.7 a 0.2,0.2 0 0 0 -0.2,-0.202 z"
       transform="translate(-391,-1489)"
       inkscape:connector-curvature="0"
       style="fill:#000000;stroke:none" />
  </g>
  <path
     id="Path_854"
     data-name="Path 854"
     class="cls-1"
     d="m 197.217,-415.242 a 0.2,0.2 0 0 0 -0.2,0.2 v 7.7 a 0.2,0.2 0 0 0 0.2,0.2 h 6.484 a 0.2,0.2 0 0 0 0.2,-0.2 v -7.9 z"
     inkscape:connector-curvature="0"
     style="fill:#000000;stroke:none" />
  <circle
     class="cls-3"
     cx="201"
     cy="-412"
     r="11"
     id="circle1535"
     style="fill:none;stroke:none;stroke-width:2px" />
  <path
     style="color:#000000;font-style:normal;font-variant:normal;font-weight:normal;font-stretch:normal;font-size:medium;line-height:normal;font-family:sans-serif;font-variant-ligatures:normal;font-variant-position:normal;font-variant-caps:normal;font-variant-numeric:normal;font-variant-alternates:normal;font-feature-settings:normal;text-indent:0;text-align:start;text-decoration:none;text-decoration-line:none;text-decoration-style:solid;text-decoration-color:#000000;letter-spacing:normal;word-spacing:normal;text-transform:none;writing-mode:lr-tb;direction:ltr;text-orientation:mixed;dominant-baseline:auto;baseline-shift:baseline;text-anchor:start;white-space:normal;shape-padding:0;clip-rule:nonzero;display:inline;overflow:visible;visibility:visible;opacity:1;isolation:auto;mix-blend-mode:normal;color-interpolation:sRGB;color-interpolation-filters:linearRGB;solid-color:#000000;solid-opacity:1;vector-effect:none;fill:#000000;fill-opacity:1;fill-rule:nonzero;stroke:none;stroke-width:2px;stroke-linecap:butt;stroke-linejoin:miter;stroke-miterlimit:4;stroke-dasharray:none;stroke-dashoffset:0;stroke-opacity:1;color-rendering:auto;image-rendering:auto;shape-rendering:auto;text-rendering:auto;enable-background:accumulate"
     d="m 201,-423 c -6.06329,0 -11,4.93671 -11,11 0,6.06329 4.93671,11 11,11 6.06329,0 11,-4.93671 11,-11 0,-6.06329 -4.93671,-11 -11,-11 z m 0,2 c 4.98241,0 9,4.01759 9,9 0,4.98241 -4.01759,9 -9,9 -4.98241,0 -9,-4.01759 -9,-9 0,-4.98241 4.01759,-9 9,-9 z"
     id="circle1537"
     inkscape:connector-curvature="0" />
</svg>
