<?xml version="1.0" encoding="UTF-8" standalone="no"?>
<svg
   xmlns:dc="http://purl.org/dc/elements/1.1/"
   xmlns:cc="http://creativecommons.org/ns#"
   xmlns:rdf="http://www.w3.org/1999/02/22-rdf-syntax-ns#"
   xmlns:svg="http://www.w3.org/2000/svg"
   xmlns="http://www.w3.org/2000/svg"
   xmlns:sodipodi="http://sodipodi.sourceforge.net/DTD/sodipodi-0.dtd"
   xmlns:inkscape="http://www.inkscape.org/namespaces/inkscape"
   viewBox="158 -423 22 22"
   version="1.1"
   id="svg4613"
   sodipodi:docname="Edit Icon.svg"
   inkscape:version="0.92.2 (unknown)">
  <metadata
     id="metadata4617">
    <rdf:RDF>
      <cc:Work
         rdf:about="">
        <dc:format>image/svg+xml</dc:format>
        <dc:type
           rdf:resource="http://purl.org/dc/dcmitype/StillImage" />
      </cc:Work>
    </rdf:RDF>
  </metadata>
  <sodipodi:namedview
     pagecolor="#ffffff"
     bordercolor="#666666"
     borderopacity="1"
     objecttolerance="10"
     gridtolerance="10"
     guidetolerance="10"
     inkscape:pageopacity="0"
     inkscape:pageshadow="2"
     inkscape:window-width="1855"
     inkscape:window-height="1056"
     id="namedview4615"
     showgrid="false"
     inkscape:zoom="10.727273"
     inkscape:cx="0.13983051"
     inkscape:cy="11"
     inkscape:window-x="65"
     inkscape:window-y="24"
     inkscape:window-maximized="1"
     inkscape:current-layer="svg4613" />
  <defs
     id="defs4601">
    <style
       id="style4599">
      .cls-1 {
        fill: #56c0e0;
      }

      .cls-2, .cls-4 {
        fill: none;
      }

      .cls-2 {
        stroke: #56c0e0;
        stroke-width: 2px;
      }

      .cls-3 {
        stroke: none;
      }
    </style>
  </defs>
  <path
     id="Path_1283"
     data-name="Path 1283"
     class="cls-1"
     d="m 171.119,-416.083 0.212,0.213 1.273,1.273 0.213,0.212 0.212,-0.212 0.425,-0.424 0.212,-0.213 a 0.3,0.3 0 0 0 0,-0.425 l -1.273,-1.273 a 0.3,0.3 0 0 0 -0.425,0 l -0.213,0.212 -0.424,0.425 z"
     inkscape:connector-curvature="0"
     style="fill:#000000" />
  <rect
     id="Rectangle_247"
     data-name="Rectangle 247"
     class="cls-1"
     width="7.5539999"
     height="2.401"
     transform="rotate(-45)"
     x="406.935"
     y="-173.21642"
     style="fill:#000000" />
  <path
     id="Path_1284"
     data-name="Path 1284"
     class="cls-1"
     d="m 164.751,-409.715 -0.979,2.56 c -0.042,0.109 0.012,0.163 0.121,0.121 l 2.559,-0.983 z"
     inkscape:connector-curvature="0"
     style="fill:#000000" />
  <circle
     class="cls-3"
     cx="169"
     cy="-412"
     r="11"
     id="circle4607"
     style="fill:none;stroke:none;stroke-width:2px" />
  <path
     style="color:#000000;font-style:normal;font-variant:normal;font-weight:normal;font-stretch:normal;font-size:medium;line-height:normal;font-family:sans-serif;font-variant-ligatures:normal;font-variant-position:normal;font-variant-caps:normal;font-variant-numeric:normal;font-variant-alternates:normal;font-feature-settings:normal;text-indent:0;text-align:start;text-decoration:none;text-decoration-line:none;text-decoration-style:solid;text-decoration-color:#000000;letter-spacing:normal;word-spacing:normal;text-transform:none;writing-mode:lr-tb;direction:ltr;text-orientation:mixed;dominant-baseline:auto;baseline-shift:baseline;text-anchor:start;white-space:normal;shape-padding:0;clip-rule:nonzero;display:inline;overflow:visible;visibility:visible;opacity:1;isolation:auto;mix-blend-mode:normal;color-interpolation:sRGB;color-interpolation-filters:linearRGB;solid-color:#000000;solid-opacity:1;vector-effect:none;fill:#000000;fill-opacity:1;fill-rule:nonzero;stroke:none;stroke-width:2px;stroke-linecap:butt;stroke-linejoin:miter;stroke-miterlimit:4;stroke-dasharray:none;stroke-dashoffset:0;stroke-opacity:1;color-rendering:auto;image-rendering:auto;shape-rendering:auto;text-rendering:auto;enable-background:accumulate"
     d="m 169,-423 c -6.06329,0 -11,4.93671 -11,11 0,6.06329 4.93671,11 11,11 6.06329,0 11,-4.93671 11,-11 0,-6.06329 -4.93671,-11 -11,-11 z m 0,2 c 4.98241,0 9,4.01759 9,9 0,4.98241 -4.01759,9 -9,9 -4.98241,0 -9,-4.01759 -9,-9 0,-4.98241 4.01759,-9 9,-9 z"
     id="circle4609"
     inkscape:connector-curvature="0" />
</svg>
