<?xml version="1.0" encoding="UTF-8" standalone="no"?>
<svg
   xmlns:dc="http://purl.org/dc/elements/1.1/"
   xmlns:cc="http://creativecommons.org/ns#"
   xmlns:rdf="http://www.w3.org/1999/02/22-rdf-syntax-ns#"
   xmlns:svg="http://www.w3.org/2000/svg"
   xmlns="http://www.w3.org/2000/svg"
   xmlns:sodipodi="http://sodipodi.sourceforge.net/DTD/sodipodi-0.dtd"
   xmlns:inkscape="http://www.inkscape.org/namespaces/inkscape"
   viewBox="94 -423 22 22"
   version="1.1"
   id="svg883"
   sodipodi:docname="Add Icon Black.svg"
   inkscape:version="0.92.2 (unknown)">
  <metadata
     id="metadata887">
    <rdf:RDF>
      <cc:Work
         rdf:about="">
        <dc:format>image/svg+xml</dc:format>
        <dc:type
           rdf:resource="http://purl.org/dc/dcmitype/StillImage" />
      </cc:Work>
    </rdf:RDF>
  </metadata>
  <sodipodi:namedview
     pagecolor="#ffffff"
     bordercolor="#666666"
     borderopacity="1"
     objecttolerance="10"
     gridtolerance="10"
     guidetolerance="10"
     inkscape:pageopacity="0"
     inkscape:pageshadow="2"
     inkscape:window-width="1855"
     inkscape:window-height="1056"
     id="namedview885"
     showgrid="false"
     inkscape:zoom="14.431407"
     inkscape:cx="13.926834"
     inkscape:cy="-0.87307585"
     inkscape:window-x="1985"
     inkscape:window-y="24"
     inkscape:window-maximized="1"
     inkscape:current-layer="svg883" />
  <defs
     id="defs873">
    <style
       id="style871">
      .cls-1, .cls-3 {
        fill: none;
      }

      .cls-1 {
        stroke: #000;
        stroke-width: 2px;
      }

      .cls-2 {
        stroke: none;
      }
    </style>
  </defs>
  <circle
     class="cls-2"
     cx="105"
     cy="-412"
     r="11"
     id="circle875"
     style="fill:none;stroke:none;stroke-width:2px" />
  <path
     style="color:#000000;font-style:normal;font-variant:normal;font-weight:normal;font-stretch:normal;font-size:medium;line-height:normal;font-family:sans-serif;font-variant-ligatures:normal;font-variant-position:normal;font-variant-caps:normal;font-variant-numeric:normal;font-variant-alternates:normal;font-feature-settings:normal;text-indent:0;text-align:start;text-decoration:none;text-decoration-line:none;text-decoration-style:solid;text-decoration-color:#000000;letter-spacing:normal;word-spacing:normal;text-transform:none;writing-mode:lr-tb;direction:ltr;text-orientation:mixed;dominant-baseline:auto;baseline-shift:baseline;text-anchor:start;white-space:normal;shape-padding:0;clip-rule:nonzero;display:inline;overflow:visible;visibility:visible;opacity:1;isolation:auto;mix-blend-mode:normal;color-interpolation:sRGB;color-interpolation-filters:linearRGB;solid-color:#000000;solid-opacity:1;vector-effect:none;fill:#000000;fill-opacity:1;fill-rule:nonzero;stroke:none;stroke-width:2px;stroke-linecap:butt;stroke-linejoin:miter;stroke-miterlimit:4;stroke-dasharray:none;stroke-dashoffset:0;stroke-opacity:1;color-rendering:auto;image-rendering:auto;shape-rendering:auto;text-rendering:auto;enable-background:accumulate"
     d="m 105,-423 c -6.063288,0 -11,4.93671 -11,11 0,6.06329 4.936712,11 11,11 6.06329,0 11,-4.93671 11,-11 0,-6.06329 -4.93671,-11 -11,-11 z m 0,2 c 4.98241,0 9,4.01759 9,9 0,4.98241 -4.01759,9 -9,9 -4.98241,0 -9,-4.01759 -9,-9 0,-4.98241 4.01759,-9 9,-9 z"
     id="circle877"
     inkscape:connector-curvature="0" />
  <path
     id="Path_1005"
     data-name="Path 1005"
     d="m 106.36534,-413.25711 v -4.43498 a 0.318,0.318 0 0 0 -0.31678,-0.31678 h -1.87101 a 0.317,0.317 0 0 0 -0.31607,0.31608 v 4.43638 l -4.438512,7.1e-4 a 0.317,0.317 0 0 0 -0.316077,0.31608 l 7.07e-4,1.87171 a 0.317,0.317 0 0 0 0.316077,0.31608 h 4.437805 v 4.43638 a 0.318,0.318 0 0 0 0.31607,0.31608 h 1.87101 a 0.319,0.319 0 0 0 0.31678,-0.31678 v -4.43639 h 4.43356 a 0.318,0.318 0 0 0 0.31679,-0.31679 v -1.87241 a 0.319,0.319 0 0 0 -0.31679,-0.31679 z"
     style="stroke:none"
     inkscape:connector-curvature="0" />
</svg>
