<?xml version="1.0" encoding="UTF-8" standalone="no"?>
<svg
   xmlns:dc="http://purl.org/dc/elements/1.1/"
   xmlns:cc="http://creativecommons.org/ns#"
   xmlns:rdf="http://www.w3.org/1999/02/22-rdf-syntax-ns#"
   xmlns:svg="http://www.w3.org/2000/svg"
   xmlns="http://www.w3.org/2000/svg"
   xmlns:sodipodi="http://sodipodi.sourceforge.net/DTD/sodipodi-0.dtd"
   xmlns:inkscape="http://www.inkscape.org/namespaces/inkscape"
   viewBox="126 -423 22 22"
   version="1.1"
   id="svg2172"
   sodipodi:docname="Delete Icon.svg"
   inkscape:version="0.92.2 (unknown)">
  <metadata
     id="metadata2176">
    <rdf:RDF>
      <cc:Work
         rdf:about="">
        <dc:format>image/svg+xml</dc:format>
        <dc:type
           rdf:resource="http://purl.org/dc/dcmitype/StillImage" />
      </cc:Work>
    </rdf:RDF>
  </metadata>
  <sodipodi:namedview
     pagecolor="#ffffff"
     bordercolor="#666666"
     borderopacity="1"
     objecttolerance="10"
     gridtolerance="10"
     guidetolerance="10"
     inkscape:pageopacity="0"
     inkscape:pageshadow="2"
     inkscape:window-width="756"
     inkscape:window-height="480"
     id="namedview2174"
     showgrid="false"
     inkscape:zoom="10.727273"
     inkscape:cx="11"
     inkscape:cy="11"
     inkscape:window-x="65"
     inkscape:window-y="24"
     inkscape:window-maximized="0"
     inkscape:current-layer="svg2172" />
  <defs
     id="defs2161">
    <style
       id="style2159">
      .cls-1 {
        fill: #d93021;
      }

      .cls-2, .cls-4 {
        fill: none;
      }

      .cls-2 {
        stroke: #d93021;
        stroke-width: 2px;
      }

      .cls-3 {
        stroke: none;
      }
    </style>
  </defs>
  <path
     id="Path_1303"
     data-name="Path 1303"
     class="cls-1"
     d="m 141.36046,-415.9034 -2.72324,0.38273 -0.13917,-0.99027 a 1,1 0 0 0 -1.12945,-0.8511 l -1.98053,0.27835 a 1,1 0 0 0 -0.8511,1.12944 l 0.13918,0.99027 -2.72324,0.38272 a 0.251,0.251 0 0 0 -0.21277,0.28236 l 0.0696,0.49514 a 0.251,0.251 0 0 0 0.28236,0.21277 l 9.40755,-1.32214 a 0.251,0.251 0 0 0 0.21277,-0.28236 l -0.0696,-0.49514 a 0.251,0.251 0 0 0 -0.28236,-0.21277 z m -5.67325,0.79732 -0.0208,0.003 -0.13917,-0.99027 1.98054,-0.27835 0.13917,0.99027 z"
     inkscape:connector-curvature="0"
     style="fill:#000000" />
  <path
     id="Path_1304"
     data-name="Path 1304"
     class="cls-1"
     d="m 140.688,-413.149 h -7.464 c -0.173,0 -0.222,0.051 -0.222,0.144 v 5.8 c 0,0 0.049,0.094 0.222,0.094 h 7.464 c 0.173,0 0.314,-0.051 0.314,-0.144 v -5.775 c 0,-0.093 -0.14,-0.119 -0.314,-0.119 z m -5.464,5.029 c 0,0.079 -0.1,0.144 -0.222,0.144 h -0.444 c -0.123,0 -0.222,-0.064 -0.222,-0.144 v -4.023 c 0,-0.079 0.1,-0.144 0.222,-0.144 h 0.444 c 0.123,0 0.222,0.064 0.222,0.144 z m 2.222,0 c 0,0.079 -0.1,0.144 -0.222,0.144 h -0.444 c -0.122,0 -0.222,-0.065 -0.222,-0.144 v -4.023 c 0,-0.079 0.1,-0.144 0.222,-0.144 h 0.444 c 0.122,0 0.222,0.065 0.222,0.144 z m 2.222,0 c 0,0.079 -0.1,0.144 -0.222,0.144 h -0.444 c -0.123,0 -0.222,-0.064 -0.222,-0.144 v -4.023 c 0,-0.079 0.1,-0.144 0.222,-0.144 h 0.444 c 0.123,0 0.222,0.064 0.222,0.144 z"
     inkscape:connector-curvature="0"
     style="fill:#000000" />
  <circle
     class="cls-3"
     cx="137"
     cy="-412"
     r="11"
     id="circle2166"
     style="fill:none;stroke:none;stroke-width:2px" />
  <path
     style="color:#000000;font-style:normal;font-variant:normal;font-weight:normal;font-stretch:normal;font-size:medium;line-height:normal;font-family:sans-serif;font-variant-ligatures:normal;font-variant-position:normal;font-variant-caps:normal;font-variant-numeric:normal;font-variant-alternates:normal;font-feature-settings:normal;text-indent:0;text-align:start;text-decoration:none;text-decoration-line:none;text-decoration-style:solid;text-decoration-color:#000000;letter-spacing:normal;word-spacing:normal;text-transform:none;writing-mode:lr-tb;direction:ltr;text-orientation:mixed;dominant-baseline:auto;baseline-shift:baseline;text-anchor:start;white-space:normal;shape-padding:0;clip-rule:nonzero;display:inline;overflow:visible;visibility:visible;opacity:1;isolation:auto;mix-blend-mode:normal;color-interpolation:sRGB;color-interpolation-filters:linearRGB;solid-color:#000000;solid-opacity:1;vector-effect:none;fill:#000000;fill-opacity:1;fill-rule:nonzero;stroke:none;stroke-width:2px;stroke-linecap:butt;stroke-linejoin:miter;stroke-miterlimit:4;stroke-dasharray:none;stroke-dashoffset:0;stroke-opacity:1;color-rendering:auto;image-rendering:auto;shape-rendering:auto;text-rendering:auto;enable-background:accumulate"
     d="m 137,-423 c -6.06329,0 -11,4.93671 -11,11 0,6.06329 4.93671,11 11,11 6.06329,0 11,-4.93671 11,-11 0,-6.06329 -4.93671,-11 -11,-11 z m 0,2 c 4.98241,0 9,4.01759 9,9 0,4.98241 -4.01759,9 -9,9 -4.98241,0 -9,-4.01759 -9,-9 0,-4.98241 4.01759,-9 9,-9 z"
     id="circle2168"
     inkscape:connector-curvature="0" />
</svg>
